<svg id="Layer_1" data-name="Layer 1" xmlns="http://www.w3.org/2000/svg" width="1.5in" height="1.5in" viewBox="0 0 109 109.2"><title>snapchat</title><circle cx="54.5" cy="54.5" r="53.1"/><path d="M30.9,49.6l4.5.8s3,.7,3-2.3V37.7s1.5-11.3,15.7-11.3S69,37.7,69,37.7v9.7s-.7,3.7,3,3a27.6,27.6,0,0,0,5.3-1.5L72,53.4s-4.5,1.5-1.5,6S83.3,70.6,83.3,70.6s-5.3-.8-6.8,1.5A10.5,10.5,0,0,0,75,77.3s-5.2-3-9-.7S57.1,84,51.8,81.8s-7.4-6.7-12.7-6-6,.8-6,.8,2.3-2.3-2.2-3.8-6-3-6-3,10.5-3,12.7-9.7S30.9,49.6,30.9,49.6Z" fill="#fff"/></svg>