<svg id="Layer_1" data-name="Layer 1" xmlns="http://www.w3.org/2000/svg" width="1.6in" height="1.5in" viewBox="0 0 111.6 110.3"><title>twitter</title><circle cx="55.6" cy="55.6" r="53.5"/><path d="M92.4,25.7s-2.9,6.5-7.2,8.7c0,0,8-1.5,9.4-2.9s-3.6,6.5-8,8.7c0,0,1.5,21-14.5,35.5S33.7,90.2,17.8,80.1c0,0,13,1.4,22.4-6.6A15.9,15.9,0,0,1,25.7,61.9s3.7,1.5,6.6,0c0,0-11.6-2.1-12.4-15.9a16.8,16.8,0,0,0,7.3,2.2s-12.3-9.5-4.4-21.1c0,0,9.5,15.3,32.7,16.7,0,0-3.7-13.8,10.1-18.8,0,0,8.7-3.7,16.7,4.3A30.9,30.9,0,0,0,92.4,25.7Z" fill="#fff"/></svg>